PathFileType	4	(X/Y/Z)	RBDS015\RBDS015runT45.trc
DataRate	CameraRate	NumFrames	NumMarkers	Units	OrigDataRate	OrigDataStartFrame	OrigNumFrames
150.000000	150.000000	4	33	mm	150.000000	1687	4500
Frame#	Time	L.ASIS			L.Heel.Bottom			L.Heel.Lateral			L.Heel.Top			L.Iliac.Crest			L.MT1			L.MT5			L.PSIS			L.Shank.Bottom.Lateral			L.Shank.Bottom.Medial			L.Shank.Top.Lateral			L.Shank.Top.Medial			L.Thigh.Bottom.Lateral			L.Thigh.Bottom.Medial			L.Thigh.Top.Lateral			L.Thigh.Top.Medial			R.ASIS			R.ASY			R.Heel.Bottom			R.Heel.Lateral			R.Heel.Top			R.Iliac.Crest			R.MT1			R.MT5			R.PSIS			R.Shank.Bottom.Lateral			R.Shank.Bottom.Medial			R.Shank.Top.Lateral			R.Shank.Top.Medial			R.Thigh.Bottom.Lateral			R.Thigh.Bottom.Medial			R.Thigh.Top.Lateral			R.Thigh.Top.Medial			
		X1	Y1	Z1	X2	Y2	Z2	X3	Y3	Z3	X4	Y4	Z4	X5	Y5	Z5	X6	Y6	Z6	X7	Y7	Z7	X8	Y8	Z8	X9	Y9	Z9	X10	Y10	Z10	X11	Y11	Z11	X12	Y12	Z12	X13	Y13	Z13	X14	Y14	Z14	X15	Y15	Z15	X16	Y16	Z16	X17	Y17	Z17	X18	Y18	Z18	X19	Y19	Z19	X20	Y20	Z20	X21	Y21	Z21	X22	Y22	Z22	X23	Y23	Z23	X24	Y24	Z24	X25	Y25	Z25	X26	Y26	Z26	X27	Y27	Z27	X28	Y28	Z28	X29	Y29	Z29	X30	Y30	Z30	X31	Y31	Z31	X32	Y32	Z32	X33	Y33	Z33	

1688	11.24666666666667	2253.317207469117	1047.364522533723	894.8657360451939	2068.398422427121	148.6516581298605	980.9986480031658	2092.479923710859	156.3852948263972	936.209449035701	2092.412037727303	183.6083769280461	980.0694588776438	2170.687396695368	1145.407949173741	864.3513089313466	2270.576698700468	78.73428452694745	990.47389744246	2223.172835840634	82.61505643085079	886.2983187770487	2079.57439477202	1103.760992377449	970.8294233312168	2198.002097273802	271.1168315985965	907.1782438734998	2159.066450544503	290.542536223718	934.1265047290156	2227.918692626039	345.0022964811831	891.3448199637617	2189.988782064314	368.4872140174398	920.4943135275888	2334.542915560873	710.636912362174	852.1991549275187	2279.355664868013	677.0485140649606	873.6713557636214	2273.693933286925	801.321983860424	835.7892932346789	2215.437360415531	765.3160330528817	858.7134110153397	2257.916630833726	1027.242461121013	1117.20478278322	1793.070227760697	94.92027479415216	1075.719589710968	1630.976009462739	189.5765338668537	1054.19623397868	1658.920763034585	181.7033377797495	1098.641005104987	1668.492869027341	215.2702127828044	1060.671380032641	2217.101968709021	1119.375190161175	1164.578835676616	1782.150084880372	52.18276978045187	1024.700858994501	1737.512850715889	64.40504772616227	1135.916939429799	2085.538744521964	1101.279578677351	1064.883195105222	1782.655629105316	262.9467014171299	1119.24937097575	1744.328252514095	290.8256886729656	1090.033287807582	1824.207756290381	332.5149434492905	1129.518335234727	1785.728454416624	358.4826746071863	1101.094787127515	2052.534791934288	697.6280026873267	1155.502716093526	1996.605398279418	714.4595988081662	1111.778617172995	2072.000495566408	804.6143045649656	1166.762095125707	2019.667491317322	820.9804584614033	1123.715072211416	
1689	11.25333333333333	2255.695303081167	1051.667050335115	895.0805583814415	2103.746308349793	129.6011253790662	982.6346566558028	2127.052295023084	138.9872514406038	937.6759868797774	2124.922804260702	166.3292388666985	981.3234408644167	2172.080395791308	1150.573358750671	863.7677799871792	2310.723628392694	76.04539872389927	992.1610310159502	2263.017719433803	75.52578378148799	887.9978413938888	2081.552259166367	1108.137199400543	971.1856391081412	2222.959248429566	262.0495249904806	908.1518871370029	2182.952844649948	278.4731636751372	935.4470532991828	2247.115612776966	337.9079153432017	892.1207232342482	2207.7475960239	358.5270155298947	921.5390277236571	2333.864932831949	713.186382588759	853.7754106388339	2278.672389150515	679.961122629406	875.7905666802242	2273.255332408542	804.0039204666768	837.203773383177	2215.068050542962	768.478794758408	861.0494476819105	2259.993330168973	1029.932102278521	1116.942762298971	1772.298055879253	99.90459742682262	1078.216022437613	1617.27289393314	206.8708779533498	1059.24412719277	1645.21729432255	196.3659918560707	1103.268256169556	1656.78479129735	229.5558730510856	1065.51685886184	2220.511216802596	1124.033155390698	1164.233443396708	1757.767301673612	57.69365353395292	1026.903939313733	1715.465851941693	72.39735743466019	1138.230585873957	2087.997038014412	1105.185815128919	1065.353107344902	1769.42424204687	272.3654140112931	1122.689600482088	1731.05344842187	300.239944383057	1093.469556057178	1811.3733244019	341.8663681515027	1132.010347317732	1772.960988991508	367.7813280917017	1103.569693692911	2046.131855914899	704.3487003627595	1154.888455521212	1990.669439822835	723.0448939941134	1111.254921438324	2069.113378697725	810.7478353640115	1166.385264808201	2017.310953592512	828.7715964226932	1123.259367255376	
1690	11.26	2257.991200133473	1055.62380132582	895.3242608187901	2139.951184678776	112.3432494111375	983.5481299069146	2162.530998246436	123.2922796702507	938.513187747646	2158.135468412799	150.6032030298837	981.9044638703589	2173.725827283249	1155.541874472259	863.0224963877447	2350.271322605222	75.56519812526417	993.9685608597337	2303.072050923136	70.53995910373813	889.6369847601417	2083.508158245323	1112.26678268818	971.5784850363229	2248.106521365312	254.0070146502431	908.7453847069818	2207.238406915208	267.3558020239129	936.3328513991087	2266.424764042442	331.3593600434906	892.5781201661499	2225.804219027473	349.0184141634072	922.1922843309942	2332.301571112383	714.6362164002342	855.2130126797331	2277.125856515893	681.874941614251	877.9052618416395	2272.012198134847	805.6670683787223	838.56806211297	2213.920829752394	770.7230348041945	863.476702025497	2262.030403165047	1032.3039092248	1116.590697525945	1752.084192130231	106.2870079220774	1080.552719615291	1604.352755100647	224.3679901958972	1064.038523911225	1632.204883519437	211.519206218506	1107.62607334445	1645.6198009354	244.1235421032454	1069.960707900371	2223.639004721866	1128.495550503577	1163.760011407557	1734.322885836388	64.57740159242373	1029.183805468698	1694.379564446972	81.83121019350176	1140.553327905212	2090.407777589401	1108.961383334776	1065.850057359008	1756.881380802198	282.0192927861629	1125.821502317312	1718.541403464168	310.0978921969763	1096.721051724397	1799.452544069731	351.2697390906293	1134.314826880483	1761.185602408165	377.3340044368983	1105.959140989916	2040.624256970031	710.7077985636258	1154.396648656717	1985.613671271715	731.0655256850284	1110.867757022074	2066.778235339813	816.5088827972654	1166.101199482321	2015.48025108019	836.0047945018723	1122.942590300238	
1691	11.26666666666667	2260.07804404579	1059.144931352923	895.5847274765066	2176.640162617495	97.08020002638868	983.77363946003	2198.544077248847	109.5223350855294	938.7498423886788	2191.709743974732	136.6150573191307	981.8550323045605	2175.539624248042	1160.170526575607	862.1671754736734	2388.825486077928	77.31548812320281	995.8380209194786	2342.920130450816	67.81525652928231	891.1810233435414	2085.383072203001	1116.103455037324	972.0113167274822	2273.195352610057	247.1490516505255	908.9859865817782	2231.668074556101	257.368969094786	936.8080669910615	2285.653970722319	325.5230777085132	892.7458879414841	2243.974742469624	340.1378541499282	922.4885611560518	2329.973325178868	715.0460414772937	856.4266961545047	2274.876603732773	682.8439431908026	879.9688089984795	2270.048035885299	806.3361091961513	839.7627702541391	2212.114754545188	772.0638275660564	865.8908253830366	2263.997994232989	1034.354963271838	1116.142837192087	1732.388545029161	114.1619978707348	1082.69656320847	1591.935046526384	241.9962036513069	1068.362429233204	1619.594410982777	227.1212314582091	1111.537239175841	1634.687921158094	258.9810271792638	1073.849874723703	2226.517279058581	1132.639560498482	1163.145052909219	1711.840762069045	72.9210814946465	1031.460608774074	1674.163076294888	92.70410285289577	1142.802040148561	2092.740597309256	1112.570935566298	1066.393733285548	1744.822946923753	291.9762273386453	1128.56574532645	1706.645240057773	320.5001907846597	1099.686926937524	1788.310651514125	360.7334837995422	1136.386496649014	1750.30452451432	387.1889610614892	1108.207173417831	2036.096859411125	716.537453150617	1154.079999956979	1981.491784515798	738.3420385955787	1110.68382812525	2065.041023744046	821.7550260513486	1165.955249783734	2014.180896281725	842.5322434734912	1122.838394554416	
